<?xml version="1.0" standalone="no"?><svg xmlns="http://www.w3.org/2000/svg" viewBox="0 0 1440 320"><path fill="#ffd700" fill-opacity="0.67" d="M0,96L11.4,101.3C22.9,107,46,117,69,112C91.4,107,114,85,137,74.7C160,64,183,64,206,96C228.6,128,251,192,274,208C297.1,224,320,192,343,170.7C365.7,149,389,139,411,128C434.3,117,457,107,480,122.7C502.9,139,526,181,549,197.3C571.4,213,594,203,617,192C640,181,663,171,686,192C708.6,213,731,267,754,245.3C777.1,224,800,128,823,74.7C845.7,21,869,11,891,48C914.3,85,937,171,960,192C982.9,213,1006,171,1029,128C1051.4,85,1074,43,1097,69.3C1120,96,1143,192,1166,202.7C1188.6,213,1211,139,1234,112C1257.1,85,1280,107,1303,117.3C1325.7,128,1349,128,1371,112C1394.3,96,1417,64,1429,48L1440,32L1440,0L1428.6,0C1417.1,0,1394,0,1371,0C1348.6,0,1326,0,1303,0C1280,0,1257,0,1234,0C1211.4,0,1189,0,1166,0C1142.9,0,1120,0,1097,0C1074.3,0,1051,0,1029,0C1005.7,0,983,0,960,0C937.1,0,914,0,891,0C868.6,0,846,0,823,0C800,0,777,0,754,0C731.4,0,709,0,686,0C662.9,0,640,0,617,0C594.3,0,571,0,549,0C525.7,0,503,0,480,0C457.1,0,434,0,411,0C388.6,0,366,0,343,0C320,0,297,0,274,0C251.4,0,229,0,206,0C182.9,0,160,0,137,0C114.3,0,91,0,69,0C45.7,0,23,0,11,0L0,0Z"></path></svg>